<svg width="26" height="26" viewBox="0 0 26 26" fill="none" xmlns="http://www.w3.org/2000/svg">
<path fill-rule="evenodd" clip-rule="evenodd" d="M0.5 0H25.5V25H0.5V0ZM12.1576 14.1353L7.8665 6.09683H9.82758L12.3518 11.184C12.3906 11.2746 12.4359 11.3685 12.4877 11.4655C12.5394 11.5626 12.5848 11.6629 12.6236 11.7665C12.6495 11.8053 12.6689 11.8409 12.6818 11.8733C12.6948 11.9057 12.7077 11.9348 12.7207 11.9607C12.7854 12.0901 12.8436 12.2163 12.8954 12.3393C12.9472 12.4623 12.9925 12.5755 13.0313 12.6791C13.1349 12.459 13.2482 12.2228 13.3711 11.9704C13.4941 11.718 13.6203 11.4558 13.7498 11.184L16.3127 6.09683H18.1379L13.808 14.2324V19.4167H12.1576V14.1353Z" fill="#FB651E"/>
</svg>
