<svg width="26" height="26" viewBox="0 0 26 26" fill="none" xmlns="http://www.w3.org/2000/svg">
<path d="M8.83433 12.5C8.83433 10.1989 10.6993 8.333 13.0005 8.333C15.3017 8.333 17.1677 10.1989 17.1677 12.5C17.1677 14.8011 15.3017 16.667 13.0005 16.667C10.6993 16.667 8.83433 14.8011 8.83433 12.5ZM6.58164 12.5C6.58164 16.045 9.45536 18.9186 13.0005 18.9186C16.5456 18.9186 19.4194 16.045 19.4194 12.5C19.4194 8.955 16.5456 6.0814 13.0005 6.0814C9.45536 6.0814 6.58164 8.955 6.58164 12.5ZM18.1734 5.8269C18.1731 6.65533 18.8444 7.32717 19.6729 7.3275C20.5013 7.32783 21.1732 6.65653 21.1735 5.8281C21.1739 4.99967 20.5025 4.32783 19.6741 4.3275H19.6735C18.8454 4.32789 18.1741 4.99887 18.1734 5.8269ZM7.9503 22.6747C6.73155 22.6192 6.06912 22.4162 5.62891 22.2447C5.04528 22.0175 4.62887 21.7469 4.19105 21.3097C3.75323 20.8725 3.48222 20.4565 3.25601 19.8729C3.0844 19.4329 2.8814 18.7703 2.82599 17.5516C2.76539 16.234 2.75329 15.8382 2.75329 12.5001C2.75329 9.162 2.76639 8.7673 2.82599 7.4486C2.8815 6.2299 3.086 5.5686 3.25601 5.1273C3.48322 4.5437 3.75383 4.1273 4.19105 3.6895C4.62827 3.2517 5.04428 2.9807 5.62891 2.7545C6.06892 2.5829 6.73155 2.3799 7.9503 2.3245C9.26795 2.2639 9.66377 2.2518 13.0005 2.2518C16.3372 2.2518 16.7334 2.2649 18.0522 2.3245C19.271 2.38 19.9323 2.5845 20.3736 2.7545C20.9572 2.9807 21.3736 3.2523 21.8115 3.6895C22.2493 4.1267 22.5193 4.5437 22.7465 5.1273C22.9181 5.5673 23.1211 6.2299 23.1765 7.4486C23.2371 8.7673 23.2492 9.162 23.2492 12.5001C23.2492 15.8382 23.2371 16.2329 23.1765 17.5516C23.121 18.7703 22.917 19.4327 22.7465 19.8729C22.5193 20.4565 22.2487 20.8729 21.8115 21.3097C21.3742 21.7465 20.9572 22.0175 20.3736 22.2447C19.9336 22.4163 19.271 22.6193 18.0522 22.6747C16.7345 22.7353 16.3387 22.7474 13.0005 22.7474C9.66227 22.7474 9.26755 22.7353 7.9503 22.6747ZM7.84679 0.0757C6.51604 0.1363 5.6067 0.3473 4.81257 0.6563C3.99014 0.9754 3.29391 1.4035 2.59818 2.0981C1.90246 2.7927 1.47544 3.49 1.15633 4.3124C0.847314 5.107 0.636305 6.0158 0.575703 7.3465C0.514101 8.6793 0.5 9.1054 0.5 12.5C0.5 15.8946 0.514101 16.3207 0.575703 17.6535C0.636305 18.9843 0.847314 19.893 1.15633 20.6876C1.47544 21.5095 1.90256 22.2076 2.59818 22.9019C3.29381 23.5962 3.99014 24.0237 4.81257 24.3437C5.6082 24.6527 6.51604 24.8637 7.84679 24.9243C9.18035 24.9849 9.60577 25 13.0005 25C16.3952 25 16.8214 24.9859 18.1542 24.9243C19.4851 24.8637 20.3938 24.6527 21.1884 24.3437C22.0104 24.0237 22.7071 23.5965 23.4028 22.9019C24.0985 22.2073 24.5247 21.5095 24.8447 20.6876C25.1537 19.893 25.3657 18.9842 25.4253 17.6535C25.4859 16.3197 25.5 15.8946 25.5 12.5C25.5 9.1054 25.4859 8.6793 25.4253 7.3465C25.3647 6.0157 25.1537 5.1065 24.8447 4.3124C24.5247 3.4905 24.0974 2.7938 23.4028 2.0981C22.7082 1.4024 22.0104 0.9754 21.1894 0.6563C20.3938 0.3473 19.485 0.1353 18.1552 0.0757C16.8224 0.0151 16.3962 0 13.0015 0C9.60676 0 9.18035 0.0141 7.84679 0.0757Z" fill="url(#paint0_radial_17_475)"/>
<path d="M8.83433 12.5C8.83433 10.1989 10.6993 8.333 13.0005 8.333C15.3017 8.333 17.1677 10.1989 17.1677 12.5C17.1677 14.8011 15.3017 16.667 13.0005 16.667C10.6993 16.667 8.83433 14.8011 8.83433 12.5ZM6.58164 12.5C6.58164 16.045 9.45536 18.9186 13.0005 18.9186C16.5456 18.9186 19.4194 16.045 19.4194 12.5C19.4194 8.955 16.5456 6.0814 13.0005 6.0814C9.45536 6.0814 6.58164 8.955 6.58164 12.5ZM18.1734 5.8269C18.1731 6.65533 18.8444 7.32717 19.6729 7.3275C20.5013 7.32783 21.1732 6.65653 21.1735 5.8281C21.1739 4.99967 20.5025 4.32783 19.6741 4.3275H19.6735C18.8454 4.32789 18.1741 4.99887 18.1734 5.8269ZM7.9503 22.6747C6.73155 22.6192 6.06912 22.4162 5.62891 22.2447C5.04528 22.0175 4.62887 21.7469 4.19105 21.3097C3.75323 20.8725 3.48222 20.4565 3.25601 19.8729C3.0844 19.4329 2.8814 18.7703 2.82599 17.5516C2.76539 16.234 2.75329 15.8382 2.75329 12.5001C2.75329 9.162 2.76639 8.7673 2.82599 7.4486C2.8815 6.2299 3.086 5.5686 3.25601 5.1273C3.48322 4.5437 3.75383 4.1273 4.19105 3.6895C4.62827 3.2517 5.04428 2.9807 5.62891 2.7545C6.06892 2.5829 6.73155 2.3799 7.9503 2.3245C9.26795 2.2639 9.66377 2.2518 13.0005 2.2518C16.3372 2.2518 16.7334 2.2649 18.0522 2.3245C19.271 2.38 19.9323 2.5845 20.3736 2.7545C20.9572 2.9807 21.3736 3.2523 21.8115 3.6895C22.2493 4.1267 22.5193 4.5437 22.7465 5.1273C22.9181 5.5673 23.1211 6.2299 23.1765 7.4486C23.2371 8.7673 23.2492 9.162 23.2492 12.5001C23.2492 15.8382 23.2371 16.2329 23.1765 17.5516C23.121 18.7703 22.917 19.4327 22.7465 19.8729C22.5193 20.4565 22.2487 20.8729 21.8115 21.3097C21.3742 21.7465 20.9572 22.0175 20.3736 22.2447C19.9336 22.4163 19.271 22.6193 18.0522 22.6747C16.7345 22.7353 16.3387 22.7474 13.0005 22.7474C9.66227 22.7474 9.26755 22.7353 7.9503 22.6747ZM7.84679 0.0757C6.51604 0.1363 5.6067 0.3473 4.81257 0.6563C3.99014 0.9754 3.29391 1.4035 2.59818 2.0981C1.90246 2.7927 1.47544 3.49 1.15633 4.3124C0.847314 5.107 0.636305 6.0158 0.575703 7.3465C0.514101 8.6793 0.5 9.1054 0.5 12.5C0.5 15.8946 0.514101 16.3207 0.575703 17.6535C0.636305 18.9843 0.847314 19.893 1.15633 20.6876C1.47544 21.5095 1.90256 22.2076 2.59818 22.9019C3.29381 23.5962 3.99014 24.0237 4.81257 24.3437C5.6082 24.6527 6.51604 24.8637 7.84679 24.9243C9.18035 24.9849 9.60577 25 13.0005 25C16.3952 25 16.8214 24.9859 18.1542 24.9243C19.4851 24.8637 20.3938 24.6527 21.1884 24.3437C22.0104 24.0237 22.7071 23.5965 23.4028 22.9019C24.0985 22.2073 24.5247 21.5095 24.8447 20.6876C25.1537 19.893 25.3657 18.9842 25.4253 17.6535C25.4859 16.3197 25.5 15.8946 25.5 12.5C25.5 9.1054 25.4859 8.6793 25.4253 7.3465C25.3647 6.0157 25.1537 5.1065 24.8447 4.3124C24.5247 3.4905 24.0974 2.7938 23.4028 2.0981C22.7082 1.4024 22.0104 0.9754 21.1894 0.6563C20.3938 0.3473 19.485 0.1353 18.1552 0.0757C16.8224 0.0151 16.3962 0 13.0015 0C9.60676 0 9.18035 0.0141 7.84679 0.0757Z" fill="url(#paint1_radial_17_475)" fill-opacity="0.8"/>
<defs>
<radialGradient id="paint0_radial_17_475" cx="0" cy="0" r="1" gradientUnits="userSpaceOnUse" gradientTransform="translate(3.82153 25.1181) scale(32.6367)">
<stop offset="0.09" stop-color="#FA8F21"/>
<stop offset="0.78" stop-color="#D82D7E"/>
</radialGradient>
<radialGradient id="paint1_radial_17_475" cx="0" cy="0" r="1" gradientUnits="userSpaceOnUse" gradientTransform="translate(-1 79.5) rotate(-131.634) scale(54.1872 244.323)">
<stop offset="0.854167" stop-color="#6E00B1" stop-opacity="0"/>
<stop offset="1" stop-color="#6E00B1"/>
</radialGradient>
</defs>
</svg>
