<svg width="26" height="26" viewBox="0 0 26 26" fill="none" xmlns="http://www.w3.org/2000/svg">
<path fill-rule="evenodd" clip-rule="evenodd" d="M12.9984 0C6.09688 0 0.5 5.59688 0.5 12.5C0.5 18.0219 4.08125 22.7078 9.04844 24.3609C9.67344 24.475 9.90156 24.0891 9.90156 23.7578C9.90156 23.4609 9.89062 22.675 9.88437 21.6313C6.40781 22.3859 5.67344 19.9563 5.67344 19.9563C5.10469 18.5125 4.28594 18.1281 4.28594 18.1281C3.15156 17.3531 4.37187 17.3688 4.37187 17.3688C5.62656 17.4578 6.28594 18.6562 6.28594 18.6562C7.40156 20.5672 9.21094 20.0156 9.92344 19.6953C10.0375 18.8875 10.3594 18.3359 10.7172 18.025C7.94219 17.7094 5.02344 16.6375 5.02344 11.8469C5.02344 10.4828 5.51094 9.36719 6.30937 8.49219C6.18281 8.17656 5.75313 6.90469 6.43438 5.18438C6.43438 5.18438 7.48438 4.84844 9.87187 6.46563C10.8688 6.18906 11.9375 6.05 13 6.04531C14.0609 6.05 15.1313 6.18906 16.1297 6.46563C18.5156 4.84844 19.5641 5.18438 19.5641 5.18438C20.2453 6.90469 19.8172 8.17656 19.6891 8.49219C20.4906 9.36563 20.9734 10.4813 20.9734 11.8469C20.9734 16.6484 18.0516 17.7063 15.2656 18.0156C15.7141 18.4016 16.1141 19.1641 16.1141 20.3297C16.1141 22 16.0984 23.3484 16.0984 23.7594C16.0984 24.0938 16.3234 24.4828 16.9578 24.3609C21.9219 22.7031 25.5 18.0219 25.5 12.5C25.5 5.59688 19.9031 0 12.9984 0Z" fill="black"/>
</svg>
