<svg width="26" height="26" viewBox="0 0 26 26" fill="none" xmlns="http://www.w3.org/2000/svg">
<path d="M8.53526 12.5C8.53526 10.1989 10.4002 8.333 12.7014 8.333C15.0026 8.333 16.8686 10.1989 16.8686 12.5C16.8686 14.8011 15.0026 16.667 12.7014 16.667C10.4002 16.667 8.53526 14.8011 8.53526 12.5M6.28257 12.5C6.28257 16.045 9.15629 18.9186 12.7014 18.9186C16.2466 18.9186 19.1203 16.045 19.1203 12.5C19.1203 8.955 16.2466 6.0814 12.7014 6.0814C9.15629 6.0814 6.28257 8.955 6.28257 12.5M17.8743 5.8269C17.874 6.65533 18.5453 7.32717 19.3738 7.3275C20.2023 7.32783 20.8741 6.65653 20.8745 5.8281C20.8748 4.99967 20.2035 4.32783 19.375 4.3275H19.3744C18.5463 4.32789 17.8751 4.99887 17.8743 5.8269M7.65123 22.6747C6.43248 22.6192 5.77005 22.4162 5.32983 22.2447C4.74621 22.0175 4.32979 21.7469 3.89198 21.3097C3.45416 20.8725 3.18315 20.4565 2.95694 19.8729C2.78533 19.4329 2.58232 18.7703 2.52692 17.5516C2.46632 16.234 2.45422 15.8382 2.45422 12.5001C2.45422 9.162 2.46732 8.7673 2.52692 7.4486C2.58242 6.2299 2.78693 5.5686 2.95694 5.1273C3.18415 4.5437 3.45476 4.1273 3.89198 3.6895C4.32919 3.2517 4.74521 2.9807 5.32983 2.7545C5.76985 2.5829 6.43248 2.3799 7.65123 2.3245C8.96888 2.2639 9.36469 2.2518 12.7014 2.2518C16.0382 2.2518 16.4344 2.2649 17.7531 2.3245C18.9719 2.38 19.6332 2.5845 20.0745 2.7545C20.6581 2.9807 21.0746 3.2523 21.5124 3.6895C21.9502 4.1267 22.2202 4.5437 22.4474 5.1273C22.619 5.5673 22.822 6.2299 22.8774 7.4486C22.938 8.7673 22.9501 9.162 22.9501 12.5001C22.9501 15.8382 22.938 16.2329 22.8774 17.5516C22.8219 18.7703 22.6179 19.4327 22.4474 19.8729C22.2202 20.4565 21.9496 20.8729 21.5124 21.3097C21.0752 21.7465 20.6581 22.0175 20.0745 22.2447C19.6345 22.4163 18.9719 22.6193 17.7531 22.6747C16.4355 22.7353 16.0397 22.7474 12.7014 22.7474C9.3632 22.7474 8.96848 22.7353 7.65123 22.6747M7.54772 0.0757C6.21697 0.1363 5.30763 0.3473 4.5135 0.6563C3.69107 0.9754 2.99484 1.4035 2.29911 2.0981C1.60338 2.7927 1.17637 3.49 0.857254 4.3124C0.548242 5.107 0.337233 6.0158 0.276631 7.3465C0.215028 8.6793 0.200928 9.1054 0.200928 12.5C0.200928 15.8946 0.215028 16.3207 0.276631 17.6535C0.337233 18.9843 0.548242 19.893 0.857254 20.6876C1.17637 21.5095 1.60348 22.2076 2.29911 22.9019C2.99474 23.5962 3.69107 24.0237 4.5135 24.3437C5.30913 24.6527 6.21697 24.8637 7.54772 24.9243C8.88128 24.9849 9.30669 25 12.7014 25C16.0962 25 16.5223 24.9859 17.8551 24.9243C19.186 24.8637 20.0947 24.6527 20.8894 24.3437C21.7113 24.0237 22.408 23.5965 23.1037 22.9019C23.7995 22.2073 24.2256 21.5095 24.5456 20.6876C24.8546 19.893 25.0666 18.9842 25.1262 17.6535C25.1868 16.3197 25.2009 15.8946 25.2009 12.5C25.2009 9.1054 25.1868 8.6793 25.1262 7.3465C25.0656 6.0157 24.8546 5.1065 24.5456 4.3124C24.2256 3.4905 23.7984 2.7938 23.1037 2.0981C22.4091 1.4024 21.7113 0.9754 20.8904 0.6563C20.0947 0.3473 19.1859 0.1353 17.8561 0.0757C16.5233 0.0151 16.0972 0 12.7024 0C9.30769 0 8.88128 0.0141 7.54772 0.0757" fill="#132a1e"/>
</svg>
