<svg width="26" height="26" viewBox="0 0 26 26" fill="none" xmlns="http://www.w3.org/2000/svg">
<path d="M24.7991 0H1.79907C1.24595 0 0.799072 0.446875 0.799072 1V24C0.799072 24.5531 1.24595 25 1.79907 25H24.7991C25.3522 25 25.7991 24.5531 25.7991 24V1C25.7991 0.446875 25.3522 0 24.7991 0ZM20.0272 9.05313C20.0366 9.2 20.0366 9.35313 20.0366 9.50313C20.0366 14.0906 16.5428 19.375 10.1584 19.375C8.1897 19.375 6.3647 18.8031 4.8272 17.8188C5.10845 17.85 5.3772 17.8625 5.6647 17.8625C7.2897 17.8625 8.78345 17.3125 9.97407 16.3813C8.44907 16.35 7.16782 15.35 6.73032 13.975C7.2647 14.0531 7.74595 14.0531 8.29595 13.9125C7.51072 13.753 6.80493 13.3265 6.2985 12.7056C5.79206 12.0846 5.51622 11.3075 5.51782 10.5063V10.4625C5.9772 10.7219 6.51782 10.8812 7.08345 10.9031C6.60796 10.5862 6.218 10.1569 5.94817 9.65322C5.67834 9.14953 5.53696 8.58704 5.53657 8.01562C5.53657 7.36875 5.70532 6.77812 6.00845 6.26562C6.88002 7.33855 7.96761 8.21607 9.20052 8.84114C10.4334 9.46622 11.7841 9.82486 13.1647 9.89375C12.6741 7.53438 14.4366 5.625 16.5553 5.625C17.5553 5.625 18.4553 6.04375 19.0897 6.71875C19.8741 6.57188 20.6241 6.27812 21.2928 5.88437C21.0334 6.6875 20.4897 7.36562 19.7678 7.79375C20.4678 7.71875 21.1428 7.525 21.7678 7.25313C21.2959 7.94688 20.7053 8.5625 20.0272 9.05313V9.05313Z" fill="#132a1e"/>
</svg>
