<svg width="26" height="25" viewBox="0 0 26 25" fill="none" xmlns="http://www.w3.org/2000/svg">
<path fill-rule="evenodd" clip-rule="evenodd" d="M13.2619 0C6.3603 0 0.763428 5.59688 0.763428 12.5C0.763428 18.0219 4.34468 22.7078 9.31187 24.3609C9.93687 24.475 10.165 24.0891 10.165 23.7578C10.165 23.4609 10.1541 22.675 10.1478 21.6313C6.67124 22.3859 5.93687 19.9563 5.93687 19.9563C5.36812 18.5125 4.54937 18.1281 4.54937 18.1281C3.41499 17.3531 4.6353 17.3688 4.6353 17.3688C5.88999 17.4578 6.54937 18.6563 6.54937 18.6563C7.66499 20.5672 9.47437 20.0156 10.1869 19.6953C10.3009 18.8875 10.6228 18.3359 10.9806 18.025C8.20562 17.7094 5.28687 16.6375 5.28687 11.8469C5.28687 10.4828 5.77437 9.36719 6.5728 8.49219C6.44624 8.17656 6.01655 6.90469 6.6978 5.18438C6.6978 5.18438 7.7478 4.84844 10.1353 6.46563C11.1322 6.18906 12.2009 6.05 13.2634 6.04531C14.3244 6.05 15.3947 6.18906 16.3931 6.46563C18.7791 4.84844 19.8275 5.18438 19.8275 5.18438C20.5087 6.90469 20.0806 8.17656 19.9525 8.49219C20.7541 9.36563 21.2369 10.4813 21.2369 11.8469C21.2369 16.6484 18.315 17.7063 15.5291 18.0156C15.9775 18.4016 16.3775 19.1641 16.3775 20.3297C16.3775 22 16.3619 23.3484 16.3619 23.7594C16.3619 24.0938 16.5869 24.4828 17.2212 24.3609C22.1853 22.7031 25.7634 18.0219 25.7634 12.5C25.7634 5.59688 20.1666 0 13.2619 0V0Z" fill="#1E293B"/>
</svg>
