<svg width="26" height="25" viewBox="0 0 26 25" fill="none" xmlns="http://www.w3.org/2000/svg">
<path fill-rule="evenodd" clip-rule="evenodd" d="M0.763428 0H25.7634V25H0.763428V0ZM12.421 14.1353L8.12993 6.09683H10.091L12.6152 11.184C12.654 11.2746 12.6993 11.3685 12.7511 11.4655C12.8029 11.5626 12.8482 11.6629 12.887 11.7665C12.9129 11.8053 12.9323 11.8409 12.9453 11.8733C12.9582 11.9057 12.9711 11.9348 12.9841 11.9607C13.0488 12.0901 13.1071 12.2163 13.1588 12.3393C13.2106 12.4623 13.2559 12.5755 13.2948 12.6791C13.3983 12.459 13.5116 12.2228 13.6346 11.9704C13.7575 11.718 13.8837 11.4558 14.0132 11.184L16.5762 6.09683H18.4013L14.0714 14.2324V19.4167H12.421V14.1353Z" fill="#1E293B"/>
</svg>
